<?xml version="1.0"?>
<svg width="614" height="256" xmlns="http://www.w3.org/2000/svg" xmlns:svg="http://www.w3.org/2000/svg">
 <defs>
  <clipPath id="clip0_1_2">
   <rect fill="white" height="256" id="svg_1" width="614"/>
  </clipPath>
 </defs>
 <g class="layer">
  <title>Layer 1</title>
  <g clip-path="url(#clip0_1_2)" id="svg_2">
   <path d="m470.09,0l-326.18,0c-79.48,0 -143.91,26.86 -143.91,60l0,136c0,33.14 64.43,60 143.91,60l326.18,0c79.48,0 143.91,-26.86 143.91,-60l0,-136c0,-33.14 -64.43,-60 -143.91,-60z" fill="#7f0000" id="svg_3"/>
   <mask height="155" id="mask0_1_2" maskUnits="userSpaceOnUse" width="200" x="58" y="51">
    <path d="m258,51l-200,0l0,154.93l200,0l0,-154.93z" fill="white" id="svg_4"/>
   </mask>
   <g id="svg_5" mask="url(#mask0_1_2)">
    <path d="m227.31,64.8c-12.75,-5.85 -26.42,-10.16 -40.71,-12.63c-0.26,-0.05 -0.52,0.07 -0.66,0.31c-1.75,3.13 -3.7,7.21 -5.06,10.41c-15.38,-2.3 -30.67,-2.3 -45.73,0c-1.36,-3.28 -3.38,-7.28 -5.15,-10.41c-0.13,-0.23 -0.39,-0.35 -0.65,-0.31c-14.28,2.46 -27.95,6.77 -40.71,12.63c-0.11,0.04 -0.2,0.12 -0.27,0.23c-25.93,38.73 -33.03,76.52 -29.54,113.83c0.01,0.19 0.11,0.36 0.26,0.47c17.1,12.56 33.67,20.19 49.94,25.25c0.26,0.08 0.53,-0.02 0.7,-0.23c3.85,-5.26 7.27,-10.8 10.22,-16.62c0.17,-0.34 0,-0.75 -0.35,-0.88c-5.44,-2.07 -10.62,-4.58 -15.6,-7.44c-0.4,-0.23 -0.43,-0.79 -0.06,-1.06c1.04,-0.79 2.09,-1.61 3.09,-2.43c0.18,-0.15 0.44,-0.18 0.65,-0.09c32.73,14.95 68.17,14.95 100.51,0c0.21,-0.1 0.47,-0.07 0.66,0.08c1,0.83 2.05,1.65 3.1,2.44c0.36,0.27 0.34,0.83 -0.05,1.06c-4.99,2.91 -10.16,5.37 -15.61,7.43c-0.36,0.13 -0.51,0.55 -0.34,0.89c3,5.81 6.43,11.35 10.21,16.61c0.15,0.22 0.44,0.32 0.7,0.24c16.34,-5.06 32.91,-12.69 50.02,-25.25c0.15,-0.11 0.24,-0.28 0.26,-0.46c4.17,-43.14 -6.99,-80.61 -29.57,-113.84c-0.06,-0.11 -0.15,-0.19 -0.26,-0.23zm-102.48,91.34c-9.85,0 -17.97,-9.05 -17.97,-20.16c0,-11.11 7.96,-20.15 17.97,-20.15c10.09,0 18.14,9.12 17.98,20.15c0,11.11 -7.97,20.16 -17.98,20.16zm66.46,0c-9.85,0 -17.97,-9.05 -17.97,-20.16c0,-11.11 7.96,-20.15 17.97,-20.15c10.09,0 18.13,9.12 17.97,20.15c0,11.11 -7.88,20.16 -17.97,20.16z" fill="white" id="svg_6"/>
   </g>
   <text fill="#ffffff" font-family="Serif" font-size="85" id="svg_9" stroke-width="0" text-anchor="middle" x="380" xml:space="preserve" y="152">d3x7</text>
  </g>
 </g>
</svg>